<svg width="600" height="600" viewBox="0 0 600 600" fill="none" style="width:auto;height:40px" xmlns="http://www.w3.org/2000/svg"><path d="M510.338 128.167L511.809 123.081C513.562 117.031 512.91 111.438 509.969 107.329C507.262 103.544 502.752 101.315 497.274 101.056L393.528 99.7432C393.206 99.7369 392.89 99.655 392.606 99.504C392.321 99.353 392.077 99.1373 391.891 98.8742C391.71 98.6023 391.594 98.2918 391.553 97.9674C391.513 97.6429 391.549 97.3135 391.658 97.0053C391.836 96.4971 392.159 96.0521 392.587 95.7254C393.016 95.3987 393.53 95.2045 394.068 95.1668L498.775 93.8398C511.196 93.2698 524.644 83.1988 529.352 70.9178L535.323 55.3265C535.568 54.6672 535.624 53.9529 535.485 53.2637C528.705 22.7889 501.487 0 468.944 0C438.96 0 413.501 19.3385 404.369 46.2179C398.198 41.5895 390.504 39.4618 382.83 40.2608C368.445 41.6882 356.879 53.2613 355.455 67.6379C355.09 71.2277 355.357 74.8538 356.246 78.3513C332.747 79.0358 313.902 98.2738 313.902 121.922C313.905 124.033 314.061 126.141 314.369 128.23C314.437 128.712 314.676 129.154 315.043 129.475C315.41 129.796 315.881 129.974 316.368 129.977L507.902 130.001C507.92 130.002 507.938 130.002 507.956 130.001C508.498 129.991 509.022 129.808 509.451 129.478C509.88 129.147 510.191 128.688 510.338 128.167Z" fill="#F6821F"></path><path d="M544.899 56.4571C543.938 56.4571 542.98 56.4813 542.026 56.5295C541.872 56.5405 541.721 56.5736 541.577 56.6277C541.327 56.7131 541.101 56.8578 540.919 57.0494C540.737 57.241 540.604 57.4739 540.532 57.728L536.453 71.8078C534.699 77.8584 535.351 83.4464 538.295 87.5556C541 91.3448 545.51 93.5688 550.987 93.8281L573.104 95.155C573.415 95.1653 573.719 95.2479 573.993 95.3963C574.266 95.5448 574.501 95.7549 574.679 96.0101C574.863 96.2834 574.98 96.5959 575.02 96.9225C575.061 97.2492 575.024 97.5808 574.913 97.8906C574.735 98.3978 574.412 98.842 573.985 99.1686C573.558 99.4951 573.044 99.69 572.508 99.7292L549.528 101.056C537.051 101.631 523.606 111.697 518.902 123.978L517.242 128.314C517.173 128.495 517.147 128.69 517.168 128.883C517.189 129.076 517.255 129.262 517.362 129.424C517.469 129.586 517.612 129.721 517.781 129.817C517.95 129.912 518.14 129.967 518.334 129.975C518.355 129.975 518.374 129.975 518.395 129.975H597.467C597.927 129.979 598.375 129.833 598.744 129.558C599.112 129.283 599.381 128.896 599.508 128.454C600.909 123.459 601.617 118.296 601.612 113.108C601.603 81.8228 576.215 56.4571 544.899 56.4571Z" fill="#FBAD41"></path></svg>