<svg id="visual" viewBox="0 0 960 540" width="960" height="540" xmlns="http://www.w3.org/2000/svg" xmlns:xlink="http://www.w3.org/1999/xlink" version="1.1"><rect x="0" y="0" width="960" height="540" fill="#00101C"></rect><path d="M0 322L56 346L113 323L169 323L226 339L282 319L339 343L395 324L452 320L508 341L565 341L621 342L678 325L734 326L791 347L847 321L904 342L960 338L960 541L904 541L847 541L791 541L734 541L678 541L621 541L565 541L508 541L452 541L395 541L339 541L282 541L226 541L169 541L113 541L56 541L0 541Z" fill="#ff6600"></path><path d="M0 367L56 360L113 351L169 372L226 355L282 359L339 358L395 373L452 351L508 358L565 355L621 339L678 341L734 340L791 367L847 369L904 340L960 359L960 541L904 541L847 541L791 541L734 541L678 541L621 541L565 541L508 541L452 541L395 541L339 541L282 541L226 541L169 541L113 541L56 541L0 541Z" fill="#e84e1f"></path><path d="M0 366L56 377L113 383L169 374L226 377L282 377L339 384L395 369L452 387L508 389L565 370L621 369L678 370L734 381L791 379L847 373L904 383L960 380L960 541L904 541L847 541L791 541L734 541L678 541L621 541L565 541L508 541L452 541L395 541L339 541L282 541L226 541L169 541L113 541L56 541L0 541Z" fill="#cd382a"></path><path d="M0 398L56 405L113 397L169 404L226 406L282 402L339 397L395 401L452 404L508 395L565 396L621 410L678 409L734 415L791 417L847 411L904 407L960 413L960 541L904 541L847 541L791 541L734 541L678 541L621 541L565 541L508 541L452 541L395 541L339 541L282 541L226 541L169 541L113 541L56 541L0 541Z" fill="#b0262f"></path><path d="M0 433L56 423L113 427L169 435L226 442L282 436L339 427L395 421L452 433L508 421L565 421L621 429L678 441L734 442L791 428L847 445L904 434L960 432L960 541L904 541L847 541L791 541L734 541L678 541L621 541L565 541L508 541L452 541L395 541L339 541L282 541L226 541L169 541L113 541L56 541L0 541Z" fill="#911930"></path><path d="M0 461L56 460L113 450L169 449L226 461L282 463L339 465L395 449L452 449L508 450L565 454L621 457L678 451L734 452L791 456L847 465L904 453L960 460L960 541L904 541L847 541L791 541L734 541L678 541L621 541L565 541L508 541L452 541L395 541L339 541L282 541L226 541L169 541L113 541L56 541L0 541Z" fill="#720f2c"></path><path d="M0 476L56 491L113 490L169 477L226 492L282 483L339 478L395 481L452 480L508 493L565 490L621 486L678 480L734 486L791 489L847 487L904 482L960 481L960 541L904 541L847 541L791 541L734 541L678 541L621 541L565 541L508 541L452 541L395 541L339 541L282 541L226 541L169 541L113 541L56 541L0 541Z" fill="#530a25"></path><path d="M0 508L56 515L113 514L169 518L226 500L282 515L339 507L395 504L452 512L508 500L565 513L621 508L678 510L734 513L791 509L847 513L904 504L960 516L960 541L904 541L847 541L791 541L734 541L678 541L621 541L565 541L508 541L452 541L395 541L339 541L282 541L226 541L169 541L113 541L56 541L0 541Z" fill="#35061b"></path></svg>